HIERARCHY
ROOT pelvis
{
	OFFSET 0.000000 0.000000 0.000000
	CHANNELS 6 Xposition Yposition Zposition Zrotation Xrotation Yrotation
	JOINT lfemur
	{
		OFFSET 11.446000 0.000000 0.000000
		CHANNELS 3 Zrotation Xrotation Yrotation
		JOINT ltibia
		{
			OFFSET 0.000000 -42.030400 0.000000
			CHANNELS 3 Zrotation Xrotation Yrotation
			JOINT lfoot
			{
				OFFSET 0.000000 -39.930200 0.000000
				CHANNELS 3 Zrotation Xrotation Yrotation
				JOINT ltoes
				{
					OFFSET 0.000000 0.000000 11.775800
					CHANNELS 3 Zrotation Xrotation Yrotation
					End Site
					{
					    OFFSET 0.000000 0.000000 5.000000
					}
				}
			}
		}
	}
	JOINT rfemur
	{
		OFFSET -11.446000 0.000000 0.000000
		CHANNELS 3 Zrotation Xrotation Yrotation
		JOINT rtibia
		{
			OFFSET 0.000000 -42.030400 0.000000
			CHANNELS 3 Zrotation Xrotation Yrotation
			JOINT rfoot
			{
				OFFSET 0.000000 -39.930200 0.000000
				CHANNELS 3 Zrotation Xrotation Yrotation
				JOINT rtoes
				{
					OFFSET 0.000000 0.000000 11.775800
					CHANNELS 3 Zrotation Xrotation Yrotation
					End Site
					{
					    OFFSET 0.000000 0.000000 5.000000
					}
				}
			}
		}
	}
	JOINT thorax
	{
		OFFSET 0.000000 11.255600 -5.000000
		CHANNELS 3 Zrotation Xrotation Yrotation
		JOINT head
		{
			OFFSET 0.000000 43.799300 0.000000
			CHANNELS 3 Zrotation Xrotation Yrotation
			End Site
			{
			    OFFSET 0.000000 5.000000 0.000000
			}
		}
		JOINT lclavicle
		{
			OFFSET 0.000000 39.863000 0.000000
			CHANNELS 3 Zrotation Xrotation Yrotation
			JOINT lhumerus
			{
				OFFSET 17.380600 4.958300 0.000000
				CHANNELS 3 Zrotation Xrotation Yrotation
				JOINT lradius
				{
					OFFSET 0.000000 -27.561300 0.000000
					CHANNELS 3 Zrotation Xrotation Yrotation
					JOINT lhand
					{
						OFFSET 0.000000 -26.933000 0.000000
						CHANNELS 3 Zrotation Xrotation Yrotation
						End Site
						{
						    OFFSET 0.000000 -5.000000 0.000000
						}
					}
				}
			}
		}
		JOINT rclavicle
		{
			OFFSET 0.000000 39.863000 0.000000
			CHANNELS 3 Zrotation Xrotation Yrotation
			JOINT rhumerus
			{
				OFFSET -17.380600 4.958300 0.000000
				CHANNELS 3 Zrotation Xrotation Yrotation
				JOINT rradius
				{
					OFFSET 0.000000 -27.561300 0.000000
					CHANNELS 3 Zrotation Xrotation Yrotation
					JOINT rhand
					{
						OFFSET 0.000000 -26.933000 0.000000
						CHANNELS 3 Zrotation Xrotation Yrotation
						End Site
						{
						    OFFSET 0.000000 -5.000000 0.000000
						}
					}
				}
			}
		}
	}
}
MOTION
Frames: 14
Frame Time:	0.0333333
-64.5239 83.1491 -93.2512 -5.55005 -3.45985 -2.5208 -3.82363 -25.9176 8.14825 0.235965 35.4343 -0.204048 6.55735 5.13957 7.07004 -2.58438e-016 -5 1.59635e-015 0.760857 8.85549 -5.83595 -2.60767 74.0665 2.44597 0.874835 6.44527 -9.10769 5.21742e-017 -5 5.98632e-016 3.98349 10.4029 6.21895 4.21767 -17.518 -7.28146 -2.20695e-032 -7.95139e-016 -1.59028e-015 15.7417 26.9482 -24.4292 116.91 -46.8757 89.7065 -0.391467 2.48149 17.9488 -2.20695e-032 -7.95139e-016 -1.59028e-015 -10.2521 -2.77728 56.3149 -128.793 -40.9231 -99.239 0.0149956 0.498768 -3.54482 
-63.9091 81.2557 -85.3653 -0.539849 -3.53607 -0.4729 -8.65176 -26.2696 7.93992 0.448828 46.2693 -0.119324 6.76213 -3.18686 5.66471 -2.58438e-016 -5 1.59635e-015 -8.22564 -1.5896 -10.1172 -10.4696 85.1431 10.3239 0.19761 -0.539817 -9.70635 1.19028e-015 -5 -4.58951e-015 -3.55677 11.8531 5.32464 6.24913 -18.696 -8.0402 -9.93923e-017 0 -0 19.6255 19.8864 -21.6468 111.304 -48.845 85.0321 -0.463509 2.6937 19.547 -9.93923e-017 0 -0 -6.31139 -1.30766 52.8513 -125.543 -42.8284 -96.6959 0.0231841 0.615582 -4.37581 
-63.8911 80.2722 -77.6004 -0.9881 -4.33145 0.489695 -6.5788 -24.354 9.64207 0.755329 55.6281 -0.0845271 7.42585 -10.0641 2.54527 1.05358e-015 -5 -1.59635e-015 -8.86264 -12.4958 -10.8234 -31.6106 88.2419 31.3952 -0.618377 -4.23585 -8.33179 -2.97186e-015 -5 2.39453e-015 -3.13192 13.9833 4.94565 6.65171 -18.3968 -8.27854 3.97569e-016 0 -0 20.4373 14.3517 -21.2882 110.386 -49.1249 84.2585 -0.377974 2.43964 17.6365 3.97569e-016 0 -0 -6.02967 0.284547 50.4846 -124.108 -43.5983 -95.5561 0.00524655 0.300414 -2.1287 
-63.4861 80.0021 -69.7375 -0.456749 -4.96801 3.13157 -6.43916 -22.0898 8.87707 1.16572 63.0732 -0.446046 7.32182 -11.6755 -0.949812 -3.28004e-016 -5 7.98176e-016 -10.0179 -21.6422 -11.3178 -8.73786 84.3939 8.57112 -1.37731 -7.99941 -7.3626 -3.47828e-016 -5 -3.99088e-015 -3.38534 15.3112 2.34379 6.24465 -16.4575 -7.84968 9.93923e-016 -3.18055e-015 7.95139e-016 22.306 12.0925 -24.6123 115.485 -47.4218 88.527 -0.555903 2.94055 21.427 9.93923e-016 -3.18055e-015 7.95139e-016 -7.08375 2.00657 51.4813 -127.894 -41.4726 -98.5416 0.0279511 0.676065 -4.80923 
-62.9452 80.4739 -61.6154 0.332652 -5.29372 6.21422 -5.81252 -19.3734 7.05674 1.62799 68.2928 -1.15978 9.50292 -9.62452 -7.66678 -9.16879e-016 -5 -1.39681e-015 -10.857 -28.2957 -9.10144 -2.39434 73.5806 2.406 -1.61061 -7.89958 -9.16686 6.56007e-016 -5 -1.59635e-015 -3.72897 16.1578 0.125866 5.34369 -14.7125 -6.56732 -1.98785e-016 1.59028e-015 -0 24.8802 10.3542 -29.9337 119.497 -45.8029 91.8312 -0.519624 2.84629 20.7063 -1.98785e-016 1.59028e-015 -0 -8.80978 3.66557 52.2324 -131.967 -38.8265 -101.665 0.0695814 1.06105 -7.56829 
-62.3971 81.233 -53.1592 0.573159 -5.58943 8.19935 -3.65433 -14.553 4.67242 1.58157 67.8893 -1.87334 13.9488 -10.3598 -16.9734 1.72941e-015 -5 1.59635e-015 -10.2274 -31.1124 -1.71861 -0.796747 57.0547 1.0412 -0.323939 0.526836 -8.74698 2.71838e-015 -5 3.99088e-016 -3.22507 16.4241 -1.17903 4.05982 -12.5542 -3.79399 -3.97569e-016 0 -1.59028e-015 27.0664 9.44391 -33.9085 121.717 -44.7899 93.635 -0.403448 2.51795 18.2235 -3.97569e-016 0 -1.59028e-015 -11.2985 5.84916 52.935 -135.266 -36.3767 -104.113 0.0279305 0.679088 -4.83675 
-61.6654 80.6051 -44.7401 1.14934 -5.466 11.6166 -2.42602 -9.46958 1.37904 1.34069 65.1996 -2.14272 17.1167 -16.1168 -22.6594 2.62403e-015 -5 -6.38541e-015 -12.9176 -31.5692 5.18333 -0.307408 41.4073 0.0867291 0.568079 12.5505 -3.4725 2.78299e-015 -5 -0 -2.00246 16.8392 -3.23308 0.78491 -11.4854 -0.629138 -3.97569e-016 1.59028e-015 -0 28.6505 8.64139 -36.396 123.542 -43.8894 95.1028 -0.320548 2.25072 16.2297 -3.97569e-016 1.59028e-015 -0 -14.6953 7.42899 52.5476 -137.303 -34.7139 -105.582 0.000948107 0.162117 -1.15314 
-60.973 79.1712 -36.6237 1.81388 -5.02884 16.6534 -0.988199 -7.39615 1.26321 1.44986 66.2658 -2.09402 16.9068 -19.7282 -21.9062 -3.18055e-015 -5 -0 -17.4804 -30.0997 8.50581 -0.150843 31.6888 -0.600247 -0.200638 16.0818 0.862269 -2.22646e-015 -5 6.38541e-015 -0.560332 17.2848 -5.04037 -1.2304 -11.1156 0.77084 -4.41391e-032 -1.59028e-015 -1.59028e-015 29.4711 7.06713 -36.7877 123.627 -43.8457 95.1712 -0.215779 1.85351 13.3025 -4.41391e-032 -1.59028e-015 -1.59028e-015 -19.2424 8.8977 49.8875 -138.551 -33.6343 -106.465 0.00393333 -0.270126 1.92275 
-60.7412 77.0729 -29.1975 0.859815 -5.08106 23.2168 2.09526 -8.77069 1.21658 2.11749 71.6966 -2.52342 15.247 -23.2497 -22.0738 -9.3427e-016 -5 -1.59635e-015 -19.0958 -28.4516 8.1288 -0.204398 36.6989 -1.67765 1.20349 7.56598 -3.28169 -2.30594e-015 -5 3.1927e-015 2.08509 16.3726 -6.91504 -0.698561 -8.36583 1.28407 -3.97569e-016 0 6.36111e-015 29.6366 6.31379 -35.7028 122.742 -44.2921 94.4612 -0.204276 1.80436 12.9431 -3.97569e-016 0 6.36111e-015 -23.4147 12.2132 47.6584 -139.24 -33.0166 -106.946 0.0059112 -0.320965 2.28521 
-60.7299 74.6772 -22.3456 -0.16304 -6.55749 29.4044 5.15923 -11.9582 0.907403 4.32064 79.594 -5.23671 17.115 -26.3988 -24.0116 -1.45115e-015 -5 1.59635e-015 -19.2196 -26.3963 4.53693 -0.426719 47.8762 0.0255967 4.3748 -5.0375 -2.8606 -5.10135e-015 -5 3.1927e-015 4.86198 17.9095 -7.06078 -0.915436 -8.70091 4.91334 -1.59028e-015 3.18055e-015 -0 28.2261 5.55788 -32.6669 121.051 -45.1034 93.0958 -0.28909 2.13995 15.4087 -1.59028e-015 3.18055e-015 -0 -26.7542 12.3554 44.4147 -136.994 -34.9727 -105.362 -0.000698017 0.0132915 -0.0936229 
-60.5346 73.0929 -16.1396 -3.36248 -9.36673 32.7482 10.6394 -16.4246 2.99589 28.666 88.133 -31.176 21.0858 -26.1587 -25.9096 -1.91828e-015 -5 7.98176e-016 -14.7425 -24.0434 0.422389 -0.698364 55.655 0.0732217 2.70684 -12.5922 -4.68104 5.76969e-015 -5 3.1927e-015 10.9101 20.3024 -5.72223 -1.83656 -9.16457 4.30413 -7.95139e-016 4.77083e-015 1.27222e-014 22.7929 3.335 -26.4627 114.29 -47.8559 87.5321 -0.449014 2.65252 19.2362 -7.95139e-016 4.77083e-015 1.27222e-014 -31.4406 6.28167 43.1252 -129.533 -40.4547 -99.8099 0.0493474 0.894732 -6.37372 
-59.5056 71.9024 -10.95 -3.62395 -9.15557 33.2081 9.92549 -22.5576 9.02748 163.16 86.6499 -164.26 16.3227 -23.6067 -22.8762 -1.39131e-016 -5 -1.59635e-015 -14.8282 -22.9325 -1.6858 -0.961065 60.8134 -0.0422084 1.57488 -18.7362 -4.17929 -5.61639e-016 -5 6.38541e-015 11.0067 22.1243 -0.982937 -2.79413 -10.471 5.16716 1.76556e-031 1.59028e-015 -6.36111e-015 19.0551 4.45866 -22.535 110.577 -49.0686 84.4197 -0.703572 3.2916 24.145 1.76556e-031 1.59028e-015 -6.36111e-015 -34.4806 -1.65945 42.6241 -119.249 -45.9125 -91.6288 0.0588569 0.975614 -6.94853 
-57.8099 71.7572 -5.89996 -4.05543 -9.06155 35.6442 9.46654 -29.2521 14.1741 168.503 84.9854 -168.444 11.1859 -19.7606 -16.5249 -3.18055e-015 -5 -0 -14.5771 -18.4722 -4.09106 -1.01909 61.5725 -0.894715 -0.296827 -23.3997 -4.7539 8.38623e-017 -5 -0 11.2659 22.8251 2.63635 -2.62083 -9.76764 4.54826 3.18055e-015 1.59028e-015 3.18055e-015 16.905 6.76648 -21.5458 109.98 -49.2458 83.9157 -0.642765 3.15274 23.0633 3.18055e-015 1.59028e-015 3.18055e-015 -35.327 -8.51102 43.2723 -116.297 -47.117 -89.1998 0.0780144 1.12187 -7.9987 
-55.7457 72.2122 -0.828018 -5.7258 -10.4932 37.9152 11.4847 -35.3107 16.8333 169.659 84.3869 -169.5 5.65589 -15.6634 -12.249 -6.63937e-015 -5 -3.1927e-015 -11.2588 -11.9671 -4.96405 -0.874754 58.8991 -1.25175 -1.37568 -25.0639 -7.53618 -6.2418e-015 -5 -3.1927e-015 13.3598 23.765 5.95975 -2.78265 -10.0354 4.08189 -1.59028e-015 1.59028e-015 -0 15.6923 10.4801 -21.7174 112.025 -48.6184 85.6373 -0.570426 2.97741 21.7103 -1.59028e-015 1.59028e-015 -0 -34.6363 -13.4648 45.2848 -120.666 -45.2822 -92.7837 0.141219 1.50416 -10.7576 
